<svg width="49" height="48" viewBox="0 0 49 48" fill="none" xmlns="http://www.w3.org/2000/svg">
<path d="M37.4541 0H11.9541C5.7409 0 0.704102 5.0368 0.704102 11.25V36.75C0.704102 42.9632 5.7409 48 11.9541 48H37.4541C43.6673 48 48.7041 42.9632 48.7041 36.75V11.25C48.7041 5.0368 43.6673 0 37.4541 0Z" fill="url(#paint0_radial_193_54)"/>
<path d="M37.4541 0H11.9541C5.7409 0 0.704102 5.0368 0.704102 11.25V36.75C0.704102 42.9632 5.7409 48 11.9541 48H37.4541C43.6673 48 48.7041 42.9632 48.7041 36.75V11.25C48.7041 5.0368 43.6673 0 37.4541 0Z" fill="url(#paint1_radial_193_54)"/>
<path d="M24.7058 5.25C19.6137 5.25 18.9745 5.27231 16.9746 5.36325C14.9785 5.45475 13.6159 5.77069 12.4238 6.23438C11.1904 6.71325 10.1444 7.35394 9.10223 8.39644C8.05916 9.43875 7.41848 10.4848 6.9381 11.7176C6.4731 12.9101 6.15679 14.2732 6.06698 16.2684C5.97754 18.2685 5.9541 18.9079 5.9541 24.0002C5.9541 29.0925 5.9766 29.7296 6.06735 31.7295C6.15923 33.7256 6.47516 35.0882 6.93848 36.2803C7.41773 37.5137 8.05841 38.5598 9.10091 39.6019C10.1429 40.6449 11.1889 41.2871 12.4214 41.766C13.6144 42.2297 14.9772 42.5456 16.9729 42.6371C18.973 42.7281 19.6116 42.7504 24.7035 42.7504C29.7962 42.7504 30.4334 42.7281 32.4332 42.6371C34.4294 42.5456 35.7934 42.2297 36.9865 41.766C38.2193 41.2871 39.2639 40.6449 40.3056 39.6019C41.3487 38.5598 41.9892 37.5137 42.4697 36.2809C42.9306 35.0882 43.2471 33.7252 43.3409 31.7299C43.4307 29.73 43.4541 29.0925 43.4541 24.0002C43.4541 18.9079 43.4307 18.2689 43.3409 16.2688C43.2471 14.2727 42.9306 12.9103 42.4697 11.7182C41.9892 10.4848 41.3487 9.43875 40.3056 8.39644C39.2627 7.35356 38.2197 6.71287 36.9854 6.23456C35.79 5.77069 34.4267 5.45456 32.4306 5.36325C30.4305 5.27231 29.7938 5.25 24.7 5.25H24.7058ZM23.0237 8.62894C23.523 8.62819 24.0801 8.62894 24.7058 8.62894C29.7122 8.62894 30.3055 8.64694 32.2825 8.73675C34.1106 8.82038 35.1029 9.12581 35.7638 9.3825C36.6389 9.72225 37.2627 10.1286 37.9185 10.785C38.5748 11.4413 38.9809 12.0662 39.3216 12.9412C39.5783 13.6012 39.8841 14.5935 39.9674 16.4216C40.0572 18.3983 40.0767 18.9919 40.0767 23.9959C40.0767 28.9999 40.0572 29.5937 39.9674 31.5701C39.8837 33.3982 39.5783 34.3905 39.3216 35.0507C38.9819 35.9257 38.5748 36.5488 37.9185 37.2047C37.2623 37.8609 36.6392 38.2671 35.7638 38.607C35.1036 38.8648 34.1106 39.1695 32.2825 39.2531C30.3059 39.3429 29.7122 39.3624 24.7058 39.3624C19.6992 39.3624 19.1057 39.3429 17.1293 39.2531C15.3012 39.1688 14.3089 38.8633 13.6474 38.6066C12.7725 38.2667 12.1474 37.8606 11.4912 37.2043C10.8349 36.5481 10.4288 35.9246 10.0881 35.0492C9.83141 34.389 9.5256 33.3967 9.44235 31.5686C9.35254 29.592 9.33454 28.9984 9.33454 23.9912C9.33454 18.9842 9.35254 18.3936 9.44235 16.4169C9.52598 14.5888 9.83141 13.5966 10.0881 12.9356C10.428 12.0606 10.8349 11.4356 11.4914 10.7794C12.1476 10.1231 12.7725 9.71681 13.6476 9.37631C14.3085 9.1185 15.3012 8.81381 17.1293 8.72981C18.859 8.65162 19.5293 8.62819 23.0237 8.62425V8.62894ZM34.7145 11.7422C33.4724 11.7422 32.4645 12.7491 32.4645 13.9914C32.4645 15.2336 33.4724 16.2414 34.7145 16.2414C35.9567 16.2414 36.9645 15.2336 36.9645 13.9914C36.9645 12.7493 35.9567 11.7414 34.7145 11.7414V11.7422ZM24.7058 14.3711C19.3883 14.3711 15.0769 18.6825 15.0769 24.0002C15.0769 29.3179 19.3883 33.6272 24.7058 33.6272C30.0235 33.6272 34.3334 29.3179 34.3334 24.0002C34.3334 18.6827 30.0231 14.3711 24.7054 14.3711H24.7058ZM24.7058 17.7501C28.1575 17.7501 30.9559 20.5481 30.9559 24.0002C30.9559 27.4519 28.1575 30.2503 24.7058 30.2503C21.2539 30.2503 18.4559 27.4519 18.4559 24.0002C18.4559 20.5481 21.2539 17.7501 24.7058 17.7501Z" fill="white"/>
<defs>
<radialGradient id="paint0_radial_193_54" cx="0" cy="0" r="1" gradientUnits="userSpaceOnUse" gradientTransform="translate(13.4541 51.6969) rotate(-90) scale(47.5716 44.2453)">
<stop stop-color="#FFDD55"/>
<stop offset="0.1" stop-color="#FFDD55"/>
<stop offset="0.5" stop-color="#FF543E"/>
<stop offset="1" stop-color="#C837AB"/>
</radialGradient>
<radialGradient id="paint1_radial_193_54" cx="0" cy="0" r="1" gradientUnits="userSpaceOnUse" gradientTransform="translate(-7.33609 3.45769) rotate(78.681) scale(21.2648 87.654)">
<stop stop-color="#3771C8"/>
<stop offset="0.128" stop-color="#3771C8"/>
<stop offset="1" stop-color="#6600FF" stop-opacity="0"/>
</radialGradient>
</defs>
</svg>
