<svg width="12" height="12" viewBox="0 0 12 12" fill="none" xmlns="http://www.w3.org/2000/svg">
<path d="M5 7.5L7.595 6L5 4.5V7.5ZM10.78 3.585C10.845 3.82 10.89 4.135 10.92 4.535C10.955 4.935 10.97 5.28 10.97 5.58L11 6C11 7.095 10.92 7.9 10.78 8.415C10.655 8.865 10.365 9.155 9.915 9.28C9.68 9.345 9.25 9.39 8.59 9.42C7.94 9.455 7.345 9.47 6.795 9.47L6 9.5C3.905 9.5 2.6 9.42 2.085 9.28C1.635 9.155 1.345 8.865 1.22 8.415C1.155 8.18 1.11 7.865 1.08 7.465C1.045 7.065 1.03 6.72 1.03 6.42L1 6C1 4.905 1.08 4.1 1.22 3.585C1.345 3.135 1.635 2.845 2.085 2.72C2.32 2.655 2.75 2.61 3.41 2.58C4.06 2.545 4.655 2.53 5.205 2.53L6 2.5C8.095 2.5 9.4 2.58 9.915 2.72C10.365 2.845 10.655 3.135 10.78 3.585Z" fill="white"/>
</svg>
