<svg width="360" height="501" viewBox="0 0 360 501" fill="none" xmlns="http://www.w3.org/2000/svg">
<path d="M0 24.3999C0 11.1451 10.7452 0.399902 24 0.399902H336C349.255 0.399902 360 11.1451 360 24.3999V476.4C360 489.655 349.255 500.4 336 500.4H24C10.7452 500.4 0 489.655 0 476.4V24.3999Z" fill="#141414"/>
<path d="M260 424.4C260 411.145 270.745 400.4 284 400.4H360V476.4C360 489.655 349.255 500.4 336 500.4H260V424.4Z" fill="white"/>
<path d="M236 500.4H260V476.4C260 489.655 249.255 500.4 236 500.4Z" fill="white"/>
<path d="M336 400.4H360V376.4C360 389.655 349.255 400.4 336 400.4Z" fill="white"/>
<path d="M120.24 222.4V129.344H115.888L115.504 125.888L121.904 120H128.752V222.4H120.24ZM155.788 223.296C150.241 223.296 146.337 222.08 144.076 219.648C141.857 217.216 140.663 213.227 140.492 207.68C140.449 206.016 140.428 204.139 140.428 202.048C140.428 199.957 140.492 197.952 140.62 196.032H148.236C148.151 198.549 148.108 200.832 148.108 202.88C148.108 204.928 148.129 206.784 148.172 208.448C148.257 211.563 148.855 213.696 149.964 214.848C151.116 215.957 153.057 216.512 155.788 216.512C158.689 216.512 160.737 215.957 161.932 214.848C163.169 213.696 163.809 211.563 163.852 208.448C163.895 207.211 163.916 206.123 163.916 205.184C163.959 204.203 163.98 203.243 163.98 202.304C164.023 201.365 164.023 200.341 163.98 199.232C163.895 196.032 163.489 193.6 162.764 191.936C162.081 190.272 160.652 189.077 158.476 188.352L152.46 186.304C149.516 185.323 147.169 184.107 145.42 182.656C143.671 181.163 142.412 179.243 141.644 176.896C140.919 174.507 140.492 171.435 140.364 167.68C140.321 166.357 140.321 165.141 140.364 164.032C140.407 162.923 140.449 161.728 140.492 160.448C140.535 154.816 141.708 150.784 144.012 148.352C146.316 145.92 150.391 144.704 156.236 144.704C161.783 144.704 165.665 145.899 167.884 148.288C170.103 150.677 171.297 154.645 171.468 160.192C171.511 161.856 171.511 163.712 171.468 165.76C171.468 167.808 171.425 169.813 171.34 171.776H163.532C163.575 170.325 163.596 168.853 163.596 167.36C163.639 165.867 163.639 164.416 163.596 163.008C163.596 161.6 163.575 160.384 163.532 159.36C163.489 156.331 162.935 154.261 161.868 153.152C160.844 152.043 158.967 151.488 156.236 151.488C153.463 151.488 151.543 152.043 150.476 153.152C149.452 154.261 148.897 156.331 148.812 159.36C148.769 160.853 148.727 162.133 148.684 163.2C148.641 164.267 148.641 165.568 148.684 167.104C148.727 170.304 149.025 172.885 149.58 174.848C150.177 176.811 151.713 178.219 154.188 179.072L159.884 180.864C163.98 182.101 167.009 184.064 168.972 186.752C170.977 189.397 171.98 193.429 171.98 198.848C171.98 200.256 171.959 201.771 171.916 203.392C171.916 204.971 171.873 206.464 171.788 207.872C171.66 213.333 170.401 217.28 168.012 219.712C165.665 222.101 161.591 223.296 155.788 223.296ZM200.433 223.296C194.502 223.296 190.406 222.08 188.145 219.648C185.926 217.216 184.817 213.227 184.817 207.68V152.384H179.505V145.6H184.945V123.84H193.457V145.6H204.849V152.384H193.265V208.512C193.265 211.584 193.692 213.696 194.545 214.848C195.398 216 197.425 216.576 200.625 216.576C201.82 216.576 202.801 216.555 203.569 216.512C204.337 216.427 205.19 216.299 206.129 216.128V222.656C205.318 222.827 204.422 222.976 203.441 223.104C202.46 223.232 201.457 223.296 200.433 223.296ZM132.72 376.296C126.704 376.296 122.331 374.995 119.6 372.392C116.912 369.747 115.483 365.416 115.312 359.4C115.269 357.437 115.227 355.496 115.184 353.576C115.184 351.656 115.184 349.608 115.184 347.432C115.227 345.256 115.269 342.781 115.312 340.008H123.76V360.296C123.76 363.325 124.464 365.544 125.872 366.952C127.323 368.317 129.541 369 132.528 369C135.472 369 137.605 368.317 138.928 366.952C140.293 365.544 140.976 363.325 140.976 360.296C141.147 356.029 141.232 351.677 141.232 347.24C141.232 342.803 141.147 338.493 140.976 334.312C140.848 331.069 140.059 328.637 138.608 327.016C137.157 325.352 134.597 324.52 130.928 324.52L124.08 324.584L123.76 317.352L140.272 280.68H115.312V273H150.128L150 280.04L133.104 317.032C138.821 317.288 142.917 318.739 145.392 321.384C147.909 323.987 149.275 328.275 149.488 334.248C149.573 336.979 149.637 339.539 149.68 341.928C149.723 344.317 149.744 346.557 149.744 348.648C149.744 350.696 149.723 352.616 149.68 354.408C149.637 356.2 149.573 357.864 149.488 359.4C149.232 365.416 147.803 369.747 145.2 372.392C142.597 374.995 138.437 376.296 132.72 376.296ZM181.058 376.296C175.682 376.296 171.543 374.867 168.642 372.008C165.741 369.107 164.269 364.989 164.226 359.656C164.141 352.061 164.077 344.253 164.034 336.232C163.991 328.211 163.991 320.189 164.034 312.168C164.077 304.147 164.141 296.339 164.226 288.744C164.269 283.368 165.741 279.251 168.642 276.392C171.543 273.533 175.682 272.104 181.058 272.104C186.391 272.104 190.509 273.533 193.41 276.392C196.311 279.251 197.805 283.368 197.89 288.744C197.975 294.461 198.039 300.307 198.082 306.28C198.167 312.253 198.21 318.248 198.21 324.264C198.21 330.28 198.167 336.275 198.082 342.248C198.039 348.179 197.975 353.981 197.89 359.656C197.805 364.989 196.311 369.107 193.41 372.008C190.509 374.867 186.391 376.296 181.058 376.296ZM181.058 369C186.477 369 189.25 366.312 189.378 360.936C189.591 352.019 189.719 343.251 189.762 334.632C189.805 325.971 189.805 317.651 189.762 309.672C189.719 301.693 189.591 294.291 189.378 287.464C189.25 282.045 186.477 279.336 181.058 279.336C175.639 279.336 172.866 282.045 172.738 287.464C172.61 293.992 172.525 300.499 172.482 306.984C172.439 313.427 172.418 319.784 172.418 326.056C172.418 332.328 172.439 338.387 172.482 344.232C172.525 350.077 172.61 355.645 172.738 360.936C172.866 366.312 175.639 369 181.058 369ZM211.851 375.4V273H219.915V300.52L219.083 333.224H221.003L226.123 318.824L233.675 298.6H242.571L229.451 330.472L245.515 375.4H236.619L224.267 339.624L220.107 348.648V375.4H211.851Z" fill="white"/>
</svg>
