<svg width="360" height="501" viewBox="0 0 360 501" fill="none" xmlns="http://www.w3.org/2000/svg">
<path d="M0 24.3999C0 11.1451 10.7452 0.399902 24 0.399902H336C349.255 0.399902 360 11.1451 360 24.3999V476.4C360 489.655 349.255 500.4 336 500.4H24C10.7452 500.4 0 489.655 0 476.4V24.3999Z" fill="#141414"/>
<path d="M0 24.3999C0 11.1451 10.7452 0.399902 24 0.399902H100V76.3999C100 89.6547 89.2548 100.4 76 100.4H0V24.3999Z" fill="white"/>
<path d="M124 0.399902L100 0.399902V24.3999C100 11.1451 110.745 0.399902 124 0.399902Z" fill="white"/>
<path d="M24 100.4H-1.43051e-06L-1.43051e-06 124.4C-1.43051e-06 111.145 10.7452 100.4 24 100.4Z" fill="white"/>
<path d="M119.168 223.4C119.125 221.949 119.083 220.712 119.04 219.688C119.04 218.664 119.019 217.725 118.976 216.872C118.976 215.976 118.976 215.016 118.976 213.992C118.976 212.925 118.976 211.645 118.976 210.152C118.976 208.659 118.997 206.739 119.04 204.392C119.125 198.461 119.765 193.597 120.96 189.8C122.155 185.96 123.733 182.803 125.696 180.328C127.701 177.853 129.963 175.72 132.48 173.928L138.048 169.576C140.693 167.315 142.4 164.989 143.168 162.6C143.936 160.168 144.384 157.608 144.512 154.92C144.683 151.72 144.768 148.52 144.768 145.32C144.768 142.077 144.683 138.856 144.512 135.656C144.384 132.755 143.637 130.643 142.272 129.32C140.949 127.997 138.752 127.336 135.68 127.336C132.821 127.336 130.731 127.997 129.408 129.32C128.128 130.643 127.445 132.755 127.36 135.656C127.317 139.112 127.296 142.589 127.296 146.088C127.296 149.544 127.36 153.021 127.488 156.52H119.104C119.061 154.173 118.997 151.848 118.912 149.544C118.869 147.197 118.848 144.957 118.848 142.824C118.848 140.691 118.869 138.728 118.912 136.936C119.125 130.92 120.533 126.611 123.136 124.008C125.781 121.405 130.005 120.104 135.808 120.104C139.904 120.104 143.168 120.68 145.6 121.832C148.075 122.941 149.888 124.733 151.04 127.208C152.192 129.64 152.853 132.84 153.024 136.808C153.067 138.088 153.109 139.539 153.152 141.16C153.195 142.739 153.216 144.381 153.216 146.088C153.216 147.752 153.216 149.352 153.216 150.888C153.216 152.424 153.173 153.747 153.088 154.856C152.917 158.781 152.341 162.109 151.36 164.84C150.421 167.528 149.077 169.896 147.328 171.944C145.579 173.949 143.403 175.955 140.8 177.96L134.912 182.248C133.248 183.613 131.883 185.448 130.816 187.752C129.792 190.013 129.003 192.573 128.448 195.432C127.936 198.248 127.68 201.235 127.68 204.392V215.72H152.896V223.4H119.168ZM164.851 223.4V146.6H173.363V153.448H175.219C176.414 150.973 177.864 149.075 179.571 147.752C181.32 146.387 183.624 145.704 186.483 145.704C190.494 145.704 193.502 146.877 195.507 149.224C197.512 151.571 198.536 155.475 198.579 160.936V223.4H190.131V160.36C190.088 157.501 189.534 155.453 188.467 154.216C187.443 152.979 185.779 152.36 183.475 152.36C181.256 152.36 179.23 153.043 177.395 154.408C175.56 155.731 174.216 157.651 173.363 160.168V223.4H164.851ZM223.49 224.296C219.437 224.296 216.429 223.101 214.466 220.712C212.503 218.323 211.437 214.44 211.266 209.064C211.181 205.395 211.117 201.597 211.074 197.672C211.031 193.704 211.01 189.672 211.01 185.576C211.01 181.48 211.031 177.363 211.074 173.224C211.117 169.085 211.181 164.989 211.266 160.936C211.437 155.475 212.525 151.571 214.53 149.224C216.578 146.877 219.607 145.704 223.618 145.704C226.562 145.704 228.845 146.344 230.466 147.624C232.13 148.861 233.602 150.803 234.882 153.448H236.418V121H244.866V223.4H236.418V216.552H234.754C233.517 219.027 232.066 220.947 230.402 222.312C228.738 223.635 226.434 224.296 223.49 224.296ZM226.306 217.64C228.695 217.64 230.765 217.021 232.514 215.784C234.263 214.504 235.565 212.52 236.418 209.832V160.168C235.565 157.437 234.263 155.453 232.514 154.216C230.807 152.979 228.759 152.36 226.37 152.36C224.109 152.36 222.466 152.979 221.442 154.216C220.418 155.453 219.863 157.501 219.778 160.36C219.607 166.205 219.501 171.944 219.458 177.576C219.415 183.208 219.415 188.691 219.458 194.024C219.501 199.357 219.607 204.563 219.778 209.64C219.863 212.456 220.397 214.504 221.378 215.784C222.359 217.021 224.002 217.64 226.306 217.64ZM134.72 377.296C128.704 377.296 124.331 375.995 121.6 373.392C118.912 370.747 117.483 366.416 117.312 360.4C117.269 358.437 117.227 356.496 117.184 354.576C117.184 352.656 117.184 350.608 117.184 348.432C117.227 346.256 117.269 343.781 117.312 341.008H125.76V361.296C125.76 364.325 126.464 366.544 127.872 367.952C129.323 369.317 131.541 370 134.528 370C137.472 370 139.605 369.317 140.928 367.952C142.293 366.544 142.976 364.325 142.976 361.296C143.147 357.029 143.232 352.677 143.232 348.24C143.232 343.803 143.147 339.493 142.976 335.312C142.848 332.069 142.059 329.637 140.608 328.016C139.157 326.352 136.597 325.52 132.928 325.52L126.08 325.584L125.76 318.352L142.272 281.68H117.312V274H152.128L152 281.04L135.104 318.032C140.821 318.288 144.917 319.739 147.392 322.384C149.909 324.987 151.275 329.275 151.488 335.248C151.573 337.979 151.637 340.539 151.68 342.928C151.723 345.317 151.744 347.557 151.744 349.648C151.744 351.696 151.723 353.616 151.68 355.408C151.637 357.2 151.573 358.864 151.488 360.4C151.232 366.416 149.803 370.747 147.2 373.392C144.597 375.995 140.437 377.296 134.72 377.296ZM183.058 377.296C177.682 377.296 173.543 375.867 170.642 373.008C167.741 370.107 166.269 365.989 166.226 360.656C166.141 353.061 166.077 345.253 166.034 337.232C165.991 329.211 165.991 321.189 166.034 313.168C166.077 305.147 166.141 297.339 166.226 289.744C166.269 284.368 167.741 280.251 170.642 277.392C173.543 274.533 177.682 273.104 183.058 273.104C188.391 273.104 192.509 274.533 195.41 277.392C198.311 280.251 199.805 284.368 199.89 289.744C199.975 295.461 200.039 301.307 200.082 307.28C200.167 313.253 200.21 319.248 200.21 325.264C200.21 331.28 200.167 337.275 200.082 343.248C200.039 349.179 199.975 354.981 199.89 360.656C199.805 365.989 198.311 370.107 195.41 373.008C192.509 375.867 188.391 377.296 183.058 377.296ZM183.058 370C188.477 370 191.25 367.312 191.378 361.936C191.591 353.019 191.719 344.251 191.762 335.632C191.805 326.971 191.805 318.651 191.762 310.672C191.719 302.693 191.591 295.291 191.378 288.464C191.25 283.045 188.477 280.336 183.058 280.336C177.639 280.336 174.866 283.045 174.738 288.464C174.61 294.992 174.525 301.499 174.482 307.984C174.439 314.427 174.418 320.784 174.418 327.056C174.418 333.328 174.439 339.387 174.482 345.232C174.525 351.077 174.61 356.645 174.738 361.936C174.866 367.312 177.639 370 183.058 370ZM213.851 376.4V274H221.915V301.52L221.083 334.224H223.003L228.123 319.824L235.675 299.6H244.571L231.451 331.472L247.515 376.4H238.619L226.267 340.624L222.107 349.648V376.4H213.851Z" fill="white"/>
</svg>
