<svg width="360" height="501" viewBox="0 0 360 501" fill="none" xmlns="http://www.w3.org/2000/svg">
<path d="M0 24.3999C0 11.1451 10.7452 0.399902 24 0.399902H336C349.255 0.399902 360 11.1451 360 24.3999V476.4C360 489.655 349.255 500.4 336 500.4H24C10.7452 500.4 0 489.655 0 476.4V24.3999Z" fill="#141414"/>
<path d="M260 0.399902H340C351.046 0.399902 360 9.35421 360 20.3999V100.4H280C268.954 100.4 260 91.4456 260 80.3999V0.399902Z" fill="white"/>
<path d="M360 124.4V100.4H336C349.255 100.4 360 111.145 360 124.4Z" fill="white"/>
<path d="M260 24.3999V0.399902H236C249.255 0.399902 260 11.1451 260 24.3999Z" fill="white"/>
<path d="M139.72 224.296C133.704 224.296 129.331 222.995 126.6 220.392C123.912 217.747 122.483 213.416 122.312 207.4C122.269 205.437 122.227 203.496 122.184 201.576C122.184 199.656 122.184 197.608 122.184 195.432C122.227 193.256 122.269 190.781 122.312 188.008H130.76V208.296C130.76 211.325 131.464 213.544 132.872 214.952C134.323 216.317 136.541 217 139.528 217C142.472 217 144.605 216.317 145.928 214.952C147.293 213.544 147.976 211.325 147.976 208.296C148.147 204.029 148.232 199.677 148.232 195.24C148.232 190.803 148.147 186.493 147.976 182.312C147.848 179.069 147.059 176.637 145.608 175.016C144.157 173.352 141.597 172.52 137.928 172.52L131.08 172.584L130.76 165.352L147.272 128.68H122.312V121H157.128L157 128.04L140.104 165.032C145.821 165.288 149.917 166.739 152.392 169.384C154.909 171.987 156.275 176.275 156.488 182.248C156.573 184.979 156.637 187.539 156.68 189.928C156.723 192.317 156.744 194.557 156.744 196.648C156.744 198.696 156.723 200.616 156.68 202.408C156.637 204.2 156.573 205.864 156.488 207.4C156.232 213.416 154.803 217.747 152.2 220.392C149.597 222.995 145.437 224.296 139.72 224.296ZM171.226 223.4V146.6H179.738V153.896H181.53C182.255 151.08 183.386 149.139 184.922 148.072C186.501 146.963 188.613 146.408 191.258 146.408C191.941 146.408 192.645 146.429 193.37 146.472C194.138 146.515 194.778 146.536 195.29 146.536V153.384H191.322C187.738 153.384 185.071 154.045 183.322 155.368C181.615 156.691 180.421 158.845 179.738 161.832V223.4H171.226ZM212.74 224.296C208.687 224.296 205.679 223.101 203.716 220.712C201.753 218.323 200.687 214.44 200.516 209.064C200.431 205.395 200.367 201.597 200.324 197.672C200.281 193.704 200.26 189.672 200.26 185.576C200.26 181.48 200.281 177.363 200.324 173.224C200.367 169.085 200.431 164.989 200.516 160.936C200.687 155.475 201.775 151.571 203.78 149.224C205.828 146.877 208.857 145.704 212.868 145.704C215.812 145.704 218.095 146.344 219.716 147.624C221.38 148.861 222.852 150.803 224.132 153.448H225.668V121H234.116V223.4H225.668V216.552H224.004C222.767 219.027 221.316 220.947 219.652 222.312C217.988 223.635 215.684 224.296 212.74 224.296ZM215.556 217.64C217.945 217.64 220.015 217.021 221.764 215.784C223.513 214.504 224.815 212.52 225.668 209.832V160.168C224.815 157.437 223.513 155.453 221.764 154.216C220.057 152.979 218.009 152.36 215.62 152.36C213.359 152.36 211.716 152.979 210.692 154.216C209.668 155.453 209.113 157.501 209.028 160.36C208.857 166.205 208.751 171.944 208.708 177.576C208.665 183.208 208.665 188.691 208.708 194.024C208.751 199.357 208.857 204.563 209.028 209.64C209.113 212.456 209.647 214.504 210.628 215.784C211.609 217.021 213.252 217.64 215.556 217.64ZM139.72 377.296C133.704 377.296 129.331 375.995 126.6 373.392C123.912 370.747 122.483 366.416 122.312 360.4C122.269 358.437 122.227 356.496 122.184 354.576C122.184 352.656 122.184 350.608 122.184 348.432C122.227 346.256 122.269 343.781 122.312 341.008H130.76V361.296C130.76 364.325 131.464 366.544 132.872 367.952C134.323 369.317 136.541 370 139.528 370C142.472 370 144.605 369.317 145.928 367.952C147.293 366.544 147.976 364.325 147.976 361.296C148.147 357.029 148.232 352.677 148.232 348.24C148.232 343.803 148.147 339.493 147.976 335.312C147.848 332.069 147.059 329.637 145.608 328.016C144.157 326.352 141.597 325.52 137.928 325.52L131.08 325.584L130.76 318.352L147.272 281.68H122.312V274H157.128L157 281.04L140.104 318.032C145.821 318.288 149.917 319.739 152.392 322.384C154.909 324.987 156.275 329.275 156.488 335.248C156.573 337.979 156.637 340.539 156.68 342.928C156.723 345.317 156.744 347.557 156.744 349.648C156.744 351.696 156.723 353.616 156.68 355.408C156.637 357.2 156.573 358.864 156.488 360.4C156.232 366.416 154.803 370.747 152.2 373.392C149.597 375.995 145.437 377.296 139.72 377.296ZM188.058 377.296C182.682 377.296 178.543 375.867 175.642 373.008C172.741 370.107 171.269 365.989 171.226 360.656C171.141 353.061 171.077 345.253 171.034 337.232C170.991 329.211 170.991 321.189 171.034 313.168C171.077 305.147 171.141 297.339 171.226 289.744C171.269 284.368 172.741 280.251 175.642 277.392C178.543 274.533 182.682 273.104 188.058 273.104C193.391 273.104 197.509 274.533 200.41 277.392C203.311 280.251 204.805 284.368 204.89 289.744C204.975 295.461 205.039 301.307 205.082 307.28C205.167 313.253 205.21 319.248 205.21 325.264C205.21 331.28 205.167 337.275 205.082 343.248C205.039 349.179 204.975 354.981 204.89 360.656C204.805 365.989 203.311 370.107 200.41 373.008C197.509 375.867 193.391 377.296 188.058 377.296ZM188.058 370C193.477 370 196.25 367.312 196.378 361.936C196.591 353.019 196.719 344.251 196.762 335.632C196.805 326.971 196.805 318.651 196.762 310.672C196.719 302.693 196.591 295.291 196.378 288.464C196.25 283.045 193.477 280.336 188.058 280.336C182.639 280.336 179.866 283.045 179.738 288.464C179.61 294.992 179.525 301.499 179.482 307.984C179.439 314.427 179.418 320.784 179.418 327.056C179.418 333.328 179.439 339.387 179.482 345.232C179.525 351.077 179.61 356.645 179.738 361.936C179.866 367.312 182.639 370 188.058 370ZM218.851 376.4V274H226.915V301.52L226.083 334.224H228.003L233.123 319.824L240.675 299.6H249.571L236.451 331.472L252.515 376.4H243.619L231.267 340.624L227.107 349.648V376.4H218.851Z" fill="white"/>
</svg>
