<svg width="49" height="48" viewBox="0 0 49 48" fill="none" xmlns="http://www.w3.org/2000/svg">
<g clip-path="url(#clip0_193_58)">
<path d="M45.4258 0H2.72263C1.25995 0 0.0742188 1.18574 0.0742188 2.64842V45.3516C0.0742188 46.8143 1.25995 48 2.72263 48H45.4258C46.8885 48 48.0742 46.8143 48.0742 45.3516V2.64842C48.0742 1.18574 46.8885 0 45.4258 0Z" fill="#3D5A98"/>
<path d="M27.7717 46.1888V29.0025H33.5392L34.4017 22.305H27.7717V18.03C27.7717 16.0913 28.3117 14.7675 31.0905 14.7675H34.638V8.76751C32.9201 8.58848 31.1938 8.50335 29.4667 8.51251C24.3592 8.51251 20.8417 11.625 20.8417 17.3663V22.305H15.0742V29.0025H20.8417V46.1888H27.7717Z" fill="white"/>
</g>
<defs>
<clipPath id="clip0_193_58">
<rect width="48" height="48" fill="white" transform="translate(0.407227)"/>
</clipPath>
</defs>
</svg>
