<svg width="12" height="12" viewBox="0 0 12 12" fill="none" xmlns="http://www.w3.org/2000/svg">
<path d="M3.9 1H8.1C9.7 1 11 2.3 11 3.9V8.1C11 8.86913 10.6945 9.60675 10.1506 10.1506C9.60675 10.6945 8.86913 11 8.1 11H3.9C2.3 11 1 9.7 1 8.1V3.9C1 3.13087 1.30553 2.39325 1.84939 1.84939C2.39325 1.30553 3.13087 1 3.9 1ZM3.8 2C3.32261 2 2.86477 2.18964 2.52721 2.52721C2.18964 2.86477 2 3.32261 2 3.8V8.2C2 9.195 2.805 10 3.8 10H8.2C8.67739 10 9.13523 9.81036 9.47279 9.47279C9.81036 9.13523 10 8.67739 10 8.2V3.8C10 2.805 9.195 2 8.2 2H3.8ZM8.625 2.75C8.79076 2.75 8.94973 2.81585 9.06694 2.93306C9.18415 3.05027 9.25 3.20924 9.25 3.375C9.25 3.54076 9.18415 3.69973 9.06694 3.81694C8.94973 3.93415 8.79076 4 8.625 4C8.45924 4 8.30027 3.93415 8.18306 3.81694C8.06585 3.69973 8 3.54076 8 3.375C8 3.20924 8.06585 3.05027 8.18306 2.93306C8.30027 2.81585 8.45924 2.75 8.625 2.75ZM6 3.5C6.66304 3.5 7.29893 3.76339 7.76777 4.23223C8.23661 4.70107 8.5 5.33696 8.5 6C8.5 6.66304 8.23661 7.29893 7.76777 7.76777C7.29893 8.23661 6.66304 8.5 6 8.5C5.33696 8.5 4.70107 8.23661 4.23223 7.76777C3.76339 7.29893 3.5 6.66304 3.5 6C3.5 5.33696 3.76339 4.70107 4.23223 4.23223C4.70107 3.76339 5.33696 3.5 6 3.5ZM6 4.5C5.60218 4.5 5.22064 4.65804 4.93934 4.93934C4.65804 5.22064 4.5 5.60218 4.5 6C4.5 6.39782 4.65804 6.77936 4.93934 7.06066C5.22064 7.34196 5.60218 7.5 6 7.5C6.39782 7.5 6.77936 7.34196 7.06066 7.06066C7.34196 6.77936 7.5 6.39782 7.5 6C7.5 5.60218 7.34196 5.22064 7.06066 4.93934C6.77936 4.65804 6.39782 4.5 6 4.5Z" fill="white"/>
</svg>
