<svg width="12" height="12" viewBox="0 0 12 12" fill="none" xmlns="http://www.w3.org/2000/svg">
<path d="M3.46973 2.50001C3.46959 2.76523 3.36411 3.01953 3.17648 3.20697C2.98885 3.39441 2.73444 3.49964 2.46923 3.49951C2.20401 3.49938 1.94971 3.3939 1.76227 3.20627C1.57482 3.01863 1.46959 2.76423 1.46973 2.49901C1.46986 2.2338 1.57534 1.97949 1.76297 1.79205C1.9506 1.60461 2.20501 1.49938 2.47023 1.49951C2.73544 1.49964 2.98974 1.60513 3.17719 1.79276C3.36463 1.98039 3.46986 2.2348 3.46973 2.50001ZM3.49973 4.24001H1.49973V10.5H3.49973V4.24001ZM6.65973 4.24001H4.66973V10.5H6.63973V7.21501C6.63973 5.38501 9.02473 5.21501 9.02473 7.21501V10.5H10.9997V6.53501C10.9997 3.45001 7.46973 3.56501 6.63973 5.08001L6.65973 4.24001Z" fill="white"/>
</svg>
