<svg width="48" height="48" viewBox="0 0 48 48" fill="none" xmlns="http://www.w3.org/2000/svg">
<g clip-path="url(#clip0_193_49)">
<path d="M36.75 0H11.25C5.0368 0 0 5.0368 0 11.25V36.75C0 42.9632 5.0368 48 11.25 48H36.75C42.9632 48 48 42.9632 48 36.75V11.25C48 5.0368 42.9632 0 36.75 0Z" fill="white"/>
<path d="M36.75 0H11.25C5.0368 0 0 5.0368 0 11.25V36.75C0 42.9632 5.0368 48 11.25 48H36.75C42.9632 48 48 42.9632 48 36.75V11.25C48 5.0368 42.9632 0 36.75 0Z" fill="#1D9BF0"/>
<path d="M37.4198 17.1396C37.4404 17.4371 37.4404 17.7347 37.4404 18.0351C37.4404 27.1845 30.4751 37.7366 17.7388 37.7366V37.731C13.9763 37.7364 10.2917 36.6589 7.125 34.6269C7.67212 34.6927 8.22188 34.7256 8.77313 34.7269C11.8916 34.7293 14.9203 33.6834 17.3726 31.7571C15.9277 31.7297 14.5275 31.2516 13.3677 30.3894C12.2079 29.5273 11.3465 28.3243 10.9039 26.9486C11.9413 27.1486 13.0107 27.1078 14.0299 26.8294C10.7996 26.1767 8.47556 23.3385 8.47556 20.0422V19.9545C9.43855 20.4909 10.5163 20.7881 11.6181 20.8211C8.57569 18.7877 7.63781 14.7401 9.47494 11.5755C11.2133 13.7147 13.3822 15.4642 15.8408 16.7106C18.2994 17.9569 20.9927 18.672 23.7457 18.8096C23.4713 17.6281 23.5118 16.3952 23.8633 15.2342C24.2148 14.0732 24.865 13.0249 25.7488 12.1941C28.5377 9.57243 32.9239 9.70687 35.5455 12.4942C37.0961 12.1881 38.5831 11.6196 39.9426 10.8133C39.4256 12.4165 38.3439 13.7774 36.8987 14.6428C38.2713 14.4811 39.6118 14.1137 40.875 13.5529C39.9458 14.9445 38.7757 16.159 37.4198 17.1396Z" fill="white"/>
</g>
<defs>
<clipPath id="clip0_193_49">
<rect width="48" height="48" fill="white"/>
</clipPath>
</defs>
</svg>
