<svg width="12" height="12" viewBox="0 0 12 12" fill="none" xmlns="http://www.w3.org/2000/svg">
<path d="M11.2295 3C10.8445 3.175 10.4295 3.29 9.99953 3.345C10.4395 3.08 10.7795 2.66 10.9395 2.155C10.5245 2.405 10.0645 2.58 9.57953 2.68C9.18453 2.25 8.62953 2 7.99953 2C6.82453 2 5.86453 2.96 5.86453 4.145C5.86453 4.315 5.88453 4.48 5.91953 4.635C4.13953 4.545 2.55453 3.69 1.49953 2.395C1.31453 2.71 1.20953 3.08 1.20953 3.47C1.20953 4.215 1.58453 4.875 2.16453 5.25C1.80953 5.25 1.47953 5.15 1.18953 5V5.015C1.18953 6.055 1.92953 6.925 2.90953 7.12C2.59489 7.2061 2.26458 7.21808 1.94453 7.155C2.08033 7.58124 2.3463 7.9542 2.70504 8.22147C3.06378 8.48873 3.49725 8.63685 3.94453 8.645C3.18635 9.24522 2.24653 9.56966 1.27953 9.565C1.10953 9.565 0.939531 9.555 0.769531 9.535C1.71953 10.145 2.84953 10.5 4.05953 10.5C7.99953 10.5 10.1645 7.23 10.1645 4.395C10.1645 4.3 10.1645 4.21 10.1595 4.115C10.5795 3.815 10.9395 3.435 11.2295 3Z" fill="white"/>
</svg>
