<svg width="57" height="40" viewBox="0 0 57 40" fill="none" xmlns="http://www.w3.org/2000/svg">
<g clip-path="url(#clip0_193_61)">
<path d="M55.7438 6.23889C55.4175 5.03301 54.781 3.93365 53.8977 3.05028C53.0143 2.16692 51.915 1.53036 50.7092 1.204C46.2945 0 28.5269 0 28.5269 0C28.5269 0 10.7585 0.0364443 6.34382 1.24044C5.13793 1.56682 4.03858 2.20341 3.15525 3.08682C2.27191 3.97023 1.63542 5.06964 1.30915 6.27556C-0.0261847 14.1196 -0.544185 26.072 1.34582 33.6022C1.67212 34.8081 2.30863 35.9075 3.19196 36.7908C4.07529 37.6742 5.17462 38.3108 6.38048 38.6371C10.7951 39.8411 28.5632 39.8411 28.5632 39.8411C28.5632 39.8411 46.3309 39.8411 50.7454 38.6371C51.9513 38.3108 53.0507 37.6742 53.934 36.7909C54.8174 35.9075 55.4539 34.8081 55.7803 33.6022C57.1887 25.7471 57.6227 13.802 55.7438 6.23889Z" fill="#FF0000"/>
<path d="M22.8721 28.4578L37.6116 19.9205L22.8721 11.3831V28.4578Z" fill="white"/>
</g>
<defs>
<clipPath id="clip0_193_61">
<rect width="56.8889" height="40" fill="white" transform="translate(0.111328)"/>
</clipPath>
</defs>
</svg>
